<svg width="11" height="6" viewBox="0 0 11 6" fill="none" xmlns="http://www.w3.org/2000/svg">
<path d="M5.39683 5.40046C5.20176 5.40046 5.00669 5.33284 4.84413 5.1807L0.487528 0.920728C0.373737 0.802396 0.373737 0.616445 0.471272 0.498112C0.585064 0.37978 0.76388 0.37978 0.877671 0.481208L5.23427 4.74118C5.31555 4.8257 5.46185 4.8257 5.55939 4.74118L9.91599 0.481208C10.0298 0.362875 10.2086 0.37978 10.3224 0.498112C10.4362 0.616445 10.4199 0.802396 10.3061 0.920728L5.94953 5.16379C5.78697 5.31594 5.5919 5.40046 5.39683 5.40046Z" fill="#212B36"/>
<path fill-rule="evenodd" clip-rule="evenodd" d="M4.56447 5.4667L0.199071 1.19812C-0.0611467 0.927515 -0.0588086 0.512326 0.16261 0.243696L0.172344 0.231887L0.182952 0.220855C0.450688 -0.0575644 0.874846 -0.0571462 1.14383 0.182609L1.15072 0.188754L5.39683 4.34069L9.63276 0.198704C9.93371 -0.108224 10.3725 -0.0268578 10.6107 0.220855C10.9 0.521698 10.829 0.954046 10.5944 1.19798L10.5854 1.20743L6.22292 5.4559C5.99907 5.66539 5.70971 5.80046 5.39683 5.80046C5.10561 5.80046 4.81129 5.69783 4.5708 5.47274L4.56447 5.4667ZM9.91599 0.481208L5.55939 4.74118C5.46185 4.8257 5.31555 4.8257 5.23427 4.74118L0.877671 0.481208C0.76388 0.37978 0.585064 0.37978 0.471272 0.498112C0.373737 0.616445 0.373737 0.802396 0.487528 0.920728L4.84413 5.1807C5.00669 5.33284 5.20176 5.40046 5.39683 5.40046C5.5919 5.40046 5.78697 5.31594 5.94953 5.16379L10.3061 0.920728C10.4199 0.802396 10.4362 0.616445 10.3224 0.498112C10.2086 0.37978 10.0298 0.362875 9.91599 0.481208Z" fill="#212B36"/>
</svg>
