<svg width="24" height="26" viewBox="0 0 24 26" fill="none" xmlns="http://www.w3.org/2000/svg">
<path d="M22.2783 8.00315H21.0596L18.2971 0.975028C18.1346 0.609403 17.7283 0.446903 17.3627 0.568778C16.9971 0.731278 16.8346 1.13753 16.9564 1.50315L19.5158 8.04378H4.44395L7.00332 1.50315C7.16582 1.13753 6.9627 0.731278 6.59707 0.568778C6.23145 0.406278 5.8252 0.609403 5.6627 0.975028L2.9002 8.00315H1.68145C1.07207 8.00315 0.543945 8.49065 0.543945 9.14065V12.5938C0.543945 13.2032 1.03145 13.7313 1.68145 13.7313H1.72207L2.77832 22.9938C2.94082 24.4157 4.15957 25.5125 5.62207 25.5125H18.2971C19.7596 25.5125 20.9783 24.4157 21.1408 22.9938L22.1971 13.7313H22.2377C22.8471 13.7313 23.3752 13.2438 23.3752 12.5938V9.14065C23.4158 8.53128 22.9283 8.00315 22.2783 8.00315ZM2.00645 9.42503H21.9939V12.2688H2.00645V9.42503ZM19.7596 22.7907C19.6783 23.5219 19.0689 24.05 18.3377 24.05H5.6627C4.93145 24.05 4.32207 23.5219 4.24082 22.7907L3.18457 13.6907H20.8158L19.7596 22.7907Z" fill="#212B36"/>
<path d="M7.73418 20.6375C8.14043 20.6375 8.46543 20.3125 8.46543 19.9062V16.7781C8.46543 16.3719 8.14043 16.0469 7.73418 16.0469C7.32793 16.0469 7.00293 16.3719 7.00293 16.7781V19.9062C7.00293 20.3125 7.32793 20.6375 7.73418 20.6375Z" fill="#212B36"/>
<path d="M16.2654 20.6375C16.6717 20.6375 16.9967 20.3125 16.9967 19.9062V16.7781C16.9967 16.3719 16.6717 16.0469 16.2654 16.0469C15.8592 16.0469 15.5342 16.3719 15.5342 16.7781V19.9062C15.5748 20.3125 15.8998 20.6375 16.2654 20.6375Z" fill="#212B36"/>
</svg>
