<svg width="18" height="21" viewBox="0 0 18 21" fill="none" xmlns="http://www.w3.org/2000/svg">
<path fill-rule="evenodd" clip-rule="evenodd" d="M0 7.92287C0 3.54719 3.54719 0 7.92287 0C12.2985 0 15.8457 3.54719 15.8457 7.92287C15.8457 12.2985 12.2985 15.8457 7.92287 15.8457C3.54719 15.8457 0 12.2985 0 7.92287ZM7.92287 1.77157C4.5256 1.77157 1.77157 4.5256 1.77157 7.92287C1.77157 11.3201 4.5256 14.0742 7.92287 14.0742C11.3201 14.0742 14.0742 11.3201 14.0742 7.92287C14.0742 4.5256 11.3201 1.77157 7.92287 1.77157Z" fill="#212B36"/>
<path fill-rule="evenodd" clip-rule="evenodd" d="M12.3733 13.511C12.7613 13.213 13.3173 13.286 13.6153 13.674L17.7096 19.0051C18.0076 19.3931 17.9346 19.9492 17.5466 20.2471C17.1586 20.5451 16.6026 20.4721 16.3046 20.0841L12.2103 14.753C11.9123 14.365 11.9853 13.809 12.3733 13.511Z" fill="#212B36"/>
</svg>
