<svg width="24" height="22" viewBox="0 0 24 22" fill="none" xmlns="http://www.w3.org/2000/svg">
<path d="M12.0002 21C11.5716 21 11.1073 20.8537 10.7859 20.5246C9.96448 19.7934 9.14305 19.0987 8.42877 18.4771C6.32162 16.6489 4.5002 15.0767 3.21448 13.5045C1.71448 11.6764 1.0002 9.92134 1.0002 7.9835C1.0002 6.08222 1.64305 4.32719 2.82162 3.04748C4.0002 1.73121 5.64305 0.999951 7.42877 0.999951C8.7502 0.999951 10.0002 1.43871 11.0716 2.27966C11.3931 2.5356 11.7145 2.8281 12.0002 3.15717C12.2859 2.8281 12.6073 2.5356 12.9288 2.27966C14.0002 1.43871 15.2145 0.999951 16.5716 0.999951C18.3573 0.999951 19.9645 1.73121 21.1788 3.04748C22.3573 4.32719 23.0002 6.08222 23.0002 7.9835C23.0002 9.92134 22.2859 11.6764 20.7859 13.5045C19.5002 15.0767 17.6788 16.6489 15.5716 18.4771C14.8573 19.0987 14.0359 19.7934 13.2145 20.5246C12.8931 20.8171 12.4288 21 12.0002 21ZM7.42877 2.2431C6.0002 2.2431 4.67877 2.8281 3.7502 3.88843C2.78591 4.94876 2.28591 6.37472 2.28591 7.94694C2.28591 9.55571 2.89305 11.0548 4.17877 12.6636C5.39305 14.1627 7.17877 15.6983 9.2502 17.4899C9.96448 18.1115 10.7859 18.8062 11.6073 19.574C11.8216 19.7568 12.1788 19.7568 12.3931 19.574C13.2502 18.8427 14.0359 18.1115 14.7502 17.4899C16.8216 15.6983 18.6073 14.1627 19.8216 12.6636C21.1073 11.0548 21.7145 9.55571 21.7145 7.94694C21.7145 6.37472 21.1788 4.94876 20.2502 3.88843C19.2859 2.8281 18.0002 2.2431 16.5716 2.2431C15.5002 2.2431 14.5359 2.57216 13.7145 3.26686C13.3573 3.5228 13.0716 3.85187 12.7502 4.2175C12.5716 4.43688 12.2859 4.58313 12.0002 4.58313C11.7145 4.58313 11.4288 4.43688 11.2502 4.2175C10.9645 3.85187 10.6431 3.5228 10.2859 3.26686C9.46448 2.60873 8.5002 2.2431 7.42877 2.2431Z" fill="#212B36"/>
<path fill-rule="evenodd" clip-rule="evenodd" d="M11.2585 2.04497C11.5091 2.24452 11.7619 2.46733 12.0002 2.7136C12.2385 2.46733 12.4913 2.24452 12.7419 2.04497L12.7435 2.04366C13.8653 1.16318 15.1442 0.699951 16.5716 0.699951C18.4444 0.699951 20.1305 1.46871 21.3993 2.84407C22.6343 4.18509 23.3002 6.01539 23.3002 7.9835C23.3002 10.0063 22.5508 11.8263 21.0181 13.6944C19.7379 15.26 17.9398 16.8199 15.8903 18.5978L15.7686 18.7034C15.5209 18.9189 15.2618 19.142 14.995 19.3718C14.4876 19.8086 13.9524 20.2694 13.4152 20.7476C13.04 21.0884 12.5048 21.3 12.0002 21.3C11.5141 21.3 10.969 21.1362 10.579 20.7421C10.0438 20.2658 9.51082 19.8069 9.00542 19.3717C8.73865 19.1421 8.47956 18.919 8.23189 18.7035C8.1912 18.6682 8.15061 18.6329 8.11012 18.5978C6.0607 16.8199 4.26261 15.2601 2.98239 13.6946C1.44959 11.8264 0.700195 10.0064 0.700195 7.9835C0.700195 6.01615 1.36539 4.18669 2.59952 2.8458C3.83546 1.46633 5.55928 0.699951 7.42877 0.699951C8.81948 0.699951 10.1343 1.16257 11.2568 2.04367L11.2585 2.04497ZM2.82162 3.04748C1.64305 4.32719 1.0002 6.08222 1.0002 7.9835C1.0002 9.92134 1.71448 11.6764 3.21448 13.5045C4.47824 15.0499 6.25956 16.5952 8.32105 18.3836L8.42877 18.4771C8.67408 18.6906 8.93203 18.9127 9.19828 19.1419C9.70728 19.5802 10.2466 20.0445 10.7859 20.5246C11.1073 20.8537 11.5716 21 12.0002 21C12.4288 21 12.8931 20.8171 13.2145 20.5246C13.7538 20.0445 14.2931 19.5801 14.8021 19.1419C15.0684 18.9127 15.3263 18.6906 15.5716 18.4771L15.6793 18.3837C17.7408 16.5952 19.5222 15.0499 20.7859 13.5045C22.2859 11.6764 23.0002 9.92134 23.0002 7.9835C23.0002 6.08222 22.3573 4.32719 21.1788 3.04748C19.9645 1.73121 18.3573 0.999951 16.5716 0.999951C15.2145 0.999951 14.0002 1.43871 12.9288 2.27966C12.6818 2.47633 12.4348 2.6946 12.204 2.93445C12.1344 3.00673 12.0664 3.08097 12.0002 3.15717C11.934 3.08097 11.866 3.00673 11.7964 2.93445C11.5656 2.6946 11.3186 2.47633 11.0716 2.27966C10.0002 1.43871 8.7502 0.999951 7.42877 0.999951C5.64305 0.999951 4.0002 1.73121 2.82162 3.04748ZM3.97214 4.09028C3.06508 5.08768 2.58591 6.43827 2.58591 7.94694C2.58591 9.46943 3.15695 10.9042 4.41247 12.4755C5.58673 13.9249 7.31036 15.4156 9.34516 17.1754L9.44645 17.263C9.59539 17.3926 9.75021 17.5264 9.90842 17.6632C10.5028 18.177 11.1549 18.7407 11.8062 19.3492C11.9092 19.4329 12.0976 19.4317 12.1983 19.3458C12.6996 18.9181 13.1671 18.4988 13.6143 18.0977C13.9361 17.809 14.2474 17.5297 14.5533 17.2636L14.6552 17.1754C16.6901 15.4156 18.4137 13.9249 19.588 12.4754C20.8434 10.9042 21.4145 9.46942 21.4145 7.94694C21.4145 6.4442 20.9031 5.09048 20.0264 4.08822C19.1174 3.08981 17.9122 2.5431 16.5716 2.5431C15.5665 2.5431 14.672 2.84995 13.9082 3.49593L13.899 3.5037L13.8892 3.51071C13.5695 3.73981 13.3094 4.03571 12.9883 4.40108L12.979 4.4116C12.7476 4.69306 12.3807 4.88313 12.0002 4.88313C11.6176 4.88313 11.2487 4.69094 11.0175 4.40689L11.0138 4.40226C10.7408 4.05294 10.4394 3.74593 10.1112 3.51071L10.1046 3.50602L10.0983 3.50098C9.32643 2.88253 8.42742 2.5431 7.42877 2.5431C6.08392 2.5431 4.84571 3.09283 3.97589 4.08608L3.97214 4.09028ZM12.7502 4.2175L12.7749 4.18937C13.0864 3.835 13.3665 3.51622 13.7145 3.26686C14.5359 2.57216 15.5002 2.2431 16.5716 2.2431C18.0002 2.2431 19.2859 2.8281 20.2502 3.88843C21.1788 4.94876 21.7145 6.37472 21.7145 7.94694C21.7145 9.55571 21.1073 11.0548 19.8216 12.6636C18.6304 14.1342 16.8892 15.6401 14.8678 17.3882L14.7502 17.4899C14.453 17.7485 14.1435 18.0261 13.8216 18.3147C13.3698 18.7199 12.8936 19.1469 12.3931 19.574C12.1788 19.7568 11.8216 19.7568 11.6073 19.574C10.9588 18.9678 10.3103 18.4071 9.71445 17.8921C9.55562 17.7548 9.40053 17.6207 9.2502 17.4899L9.13264 17.3882C7.11124 15.6401 5.37002 14.1342 4.17877 12.6636C2.89305 11.0548 2.28591 9.55571 2.28591 7.94694C2.28591 6.37472 2.78591 4.94876 3.7502 3.88843C4.67877 2.8281 6.0002 2.2431 7.42877 2.2431C8.5002 2.2431 9.46448 2.60873 10.2859 3.26686C10.6431 3.5228 10.9645 3.85187 11.2502 4.2175C11.4288 4.43688 11.7145 4.58313 12.0002 4.58313C12.2859 4.58313 12.5716 4.43688 12.7502 4.2175Z" fill="#212B36"/>
</svg>
