<svg width="136" height="28" viewBox="0 0 136 28" fill="none" xmlns="http://www.w3.org/2000/svg">
<g filter="url(#filter0_d_553_29)">
<path d="M16.978 6.364L12.496 19H8.644L4.162 6.364H7.438L10.57 15.904L13.72 6.364H16.978ZM21.3424 8.83V11.386H25.4644V13.762H21.3424V16.534H26.0044V19H18.2644V6.364H26.0044V8.83H21.3424ZM39.3067 19H36.2287L31.0807 11.206V19H28.0027V6.364H31.0807L36.2287 14.194V6.364H39.3067V19ZM41.0159 12.664C41.0159 11.416 41.2859 10.306 41.8259 9.334C42.3659 8.35 43.1159 7.588 44.0759 7.048C45.0479 6.496 46.1459 6.22 47.3699 6.22C48.8699 6.22 50.1539 6.616 51.2219 7.408C52.2899 8.2 53.0039 9.28 53.3639 10.648H49.9799C49.7279 10.12 49.3679 9.718 48.8999 9.442C48.4439 9.166 47.9219 9.028 47.3339 9.028C46.3859 9.028 45.6179 9.358 45.0299 10.018C44.4419 10.678 44.1479 11.56 44.1479 12.664C44.1479 13.768 44.4419 14.65 45.0299 15.31C45.6179 15.97 46.3859 16.3 47.3339 16.3C47.9219 16.3 48.4439 16.162 48.8999 15.886C49.3679 15.61 49.7279 15.208 49.9799 14.68H53.3639C53.0039 16.048 52.2899 17.128 51.2219 17.92C50.1539 18.7 48.8699 19.09 47.3699 19.09C46.1459 19.09 45.0479 18.82 44.0759 18.28C43.1159 17.728 42.3659 16.966 41.8259 15.994C41.2859 15.022 41.0159 13.912 41.0159 12.664ZM58.3268 8.83V11.386H62.4488V13.762H58.3268V16.534H62.9888V19H55.2488V6.364H62.9888V8.83H58.3268ZM73.3735 19.126C72.4495 19.126 71.6215 18.976 70.8895 18.676C70.1575 18.376 69.5695 17.932 69.1255 17.344C68.6935 16.756 68.4655 16.048 68.4415 15.22H71.7175C71.7655 15.688 71.9275 16.048 72.2035 16.3C72.4795 16.54 72.8395 16.66 73.2835 16.66C73.7395 16.66 74.0995 16.558 74.3635 16.354C74.6275 16.138 74.7595 15.844 74.7595 15.472C74.7595 15.16 74.6515 14.902 74.4355 14.698C74.2315 14.494 73.9735 14.326 73.6615 14.194C73.3615 14.062 72.9295 13.912 72.3655 13.744C71.5495 13.492 70.8835 13.24 70.3675 12.988C69.8515 12.736 69.4075 12.364 69.0355 11.872C68.6635 11.38 68.4775 10.738 68.4775 9.946C68.4775 8.77 68.9035 7.852 69.7555 7.192C70.6075 6.52 71.7175 6.184 73.0855 6.184C74.4775 6.184 75.5995 6.52 76.4515 7.192C77.3035 7.852 77.7595 8.776 77.8195 9.964H74.4895C74.4655 9.556 74.3155 9.238 74.0395 9.01C73.7635 8.77 73.4095 8.65 72.9775 8.65C72.6055 8.65 72.3055 8.752 72.0775 8.956C71.8495 9.148 71.7355 9.43 71.7355 9.802C71.7355 10.21 71.9275 10.528 72.3115 10.756C72.6955 10.984 73.2955 11.23 74.1115 11.494C74.9275 11.77 75.5875 12.034 76.0915 12.286C76.6075 12.538 77.0515 12.904 77.4235 13.384C77.7955 13.864 77.9815 14.482 77.9815 15.238C77.9815 15.958 77.7955 16.612 77.4235 17.2C77.0635 17.788 76.5355 18.256 75.8395 18.604C75.1435 18.952 74.3215 19.126 73.3735 19.126ZM85.4738 16.39V19H83.9078C82.7918 19 81.9218 18.73 81.2978 18.19C80.6738 17.638 80.3618 16.744 80.3618 15.508V11.512H79.1378V8.956H80.3618V6.508H83.4398V8.956H85.4558V11.512H83.4398V15.544C83.4398 15.844 83.5118 16.06 83.6558 16.192C83.7998 16.324 84.0398 16.39 84.3758 16.39H85.4738ZM97.1063 8.956V19H94.0283V17.632C93.7163 18.076 93.2903 18.436 92.7503 18.712C92.2223 18.976 91.6343 19.108 90.9863 19.108C90.2183 19.108 89.5403 18.94 88.9523 18.604C88.3643 18.256 87.9083 17.758 87.5843 17.11C87.2603 16.462 87.0983 15.7 87.0983 14.824V8.956H90.1583V14.41C90.1583 15.082 90.3323 15.604 90.6803 15.976C91.0283 16.348 91.4963 16.534 92.0843 16.534C92.6843 16.534 93.1583 16.348 93.5063 15.976C93.8543 15.604 94.0283 15.082 94.0283 14.41V8.956H97.1063ZM98.7052 13.96C98.7052 12.928 98.8972 12.022 99.2812 11.242C99.6772 10.462 100.211 9.862 100.883 9.442C101.555 9.022 102.305 8.812 103.133 8.812C103.793 8.812 104.393 8.95 104.933 9.226C105.485 9.502 105.917 9.874 106.229 10.342V5.68H109.307V19H106.229V17.56C105.941 18.04 105.527 18.424 104.987 18.712C104.459 19 103.841 19.144 103.133 19.144C102.305 19.144 101.555 18.934 100.883 18.514C100.211 18.082 99.6772 17.476 99.2812 16.696C98.8972 15.904 98.7052 14.992 98.7052 13.96ZM106.229 13.978C106.229 13.21 106.013 12.604 105.581 12.16C105.161 11.716 104.645 11.494 104.033 11.494C103.421 11.494 102.899 11.716 102.467 12.16C102.047 12.592 101.837 13.192 101.837 13.96C101.837 14.728 102.047 15.34 102.467 15.796C102.899 16.24 103.421 16.462 104.033 16.462C104.645 16.462 105.161 16.24 105.581 15.796C106.013 15.352 106.229 14.746 106.229 13.978ZM113.082 7.912C112.542 7.912 112.098 7.756 111.75 7.444C111.414 7.12 111.246 6.724 111.246 6.256C111.246 5.776 111.414 5.38 111.75 5.068C112.098 4.744 112.542 4.582 113.082 4.582C113.61 4.582 114.042 4.744 114.378 5.068C114.726 5.38 114.9 5.776 114.9 6.256C114.9 6.724 114.726 7.12 114.378 7.444C114.042 7.756 113.61 7.912 113.082 7.912ZM114.612 8.956V19H111.534V8.956H114.612ZM121.415 19.144C120.431 19.144 119.543 18.934 118.751 18.514C117.971 18.094 117.353 17.494 116.897 16.714C116.453 15.934 116.231 15.022 116.231 13.978C116.231 12.946 116.459 12.04 116.915 11.26C117.371 10.468 117.995 9.862 118.787 9.442C119.579 9.022 120.467 8.812 121.451 8.812C122.435 8.812 123.323 9.022 124.115 9.442C124.907 9.862 125.531 10.468 125.987 11.26C126.443 12.04 126.671 12.946 126.671 13.978C126.671 15.01 126.437 15.922 125.969 16.714C125.513 17.494 124.883 18.094 124.079 18.514C123.287 18.934 122.399 19.144 121.415 19.144ZM121.415 16.48C122.003 16.48 122.501 16.264 122.909 15.832C123.329 15.4 123.539 14.782 123.539 13.978C123.539 13.174 123.335 12.556 122.927 12.124C122.531 11.692 122.039 11.476 121.451 11.476C120.851 11.476 120.353 11.692 119.957 12.124C119.561 12.544 119.363 13.162 119.363 13.978C119.363 14.782 119.555 15.4 119.939 15.832C120.335 16.264 120.827 16.48 121.415 16.48Z" fill="#F8F9FA"/>
<path d="M129.744 19.144C129.204 19.144 128.76 18.988 128.412 18.676C128.076 18.352 127.908 17.956 127.908 17.488C127.908 17.008 128.076 16.606 128.412 16.282C128.76 15.958 129.204 15.796 129.744 15.796C130.272 15.796 130.704 15.958 131.04 16.282C131.388 16.606 131.562 17.008 131.562 17.488C131.562 17.956 131.388 18.352 131.04 18.676C130.704 18.988 130.272 19.144 129.744 19.144Z" fill="#DDBEA9"/>
</g>
<defs>
<filter id="filter0_d_553_29" x="0.162109" y="4.58203" width="135.399" height="22.562" filterUnits="userSpaceOnUse" color-interpolation-filters="sRGB">
<feFlood flood-opacity="0" result="BackgroundImageFix"/>
<feColorMatrix in="SourceAlpha" type="matrix" values="0 0 0 0 0 0 0 0 0 0 0 0 0 0 0 0 0 0 127 0" result="hardAlpha"/>
<feOffset dy="4"/>
<feGaussianBlur stdDeviation="2"/>
<feComposite in2="hardAlpha" operator="out"/>
<feColorMatrix type="matrix" values="0 0 0 0 0 0 0 0 0 0 0 0 0 0 0 0 0 0 0.25 0"/>
<feBlend mode="normal" in2="BackgroundImageFix" result="effect1_dropShadow_553_29"/>
<feBlend mode="normal" in="SourceGraphic" in2="effect1_dropShadow_553_29" result="shape"/>
</filter>
</defs>
</svg>
